# xmcd
#
# Track frame offsets:
#	150
#	14726
#	29158
#	47283
#	63033
#	78285
#	94440
#	109935
#	127447
#	142792
#	158781
#	172256
#	184574
#	200367
#	216289
#	231630
#	246211
#	260674
#	274196
#	289755
#
# Disc length: 4088 seconds
#
# Revision: 0
# Processed by: cddbd v1.5.2PL0 Copyright (c) Steve Scherf et al.
# Submitted via: EZCDAudioConverter 3.1.0.1
#
DISCID=350ff614
DTITLE=Nu Country Traxx Volume 210US
DYEAR=2016
DGENRE=country
TTITLE0=Dan and Shay - How Not To
TTITLE1=Kelsea Ballerini - Yeah Boy
TTITLE2=Artists Of Then, Now and Forever - Forever Country
TTITLE3=Morgan Wallen - The Way I Talk
TTITLE4=Jon Pardi - Dirt On My Boots
TTITLE5=Jennifer Nettles - Hey Heartbreak
TTITLE6=Jordan Rager - Now That I Know Your Name
TTITLE7=Colt Ford - 4 Lane Gone
TTITLE8=Ryan Follese - Put A Label On It
TTITLE9=Aaron Goodvin - Woman In Love
TTITLE10=Love And Theft - Candyland
TTITLE11=Aubrie Sellers - Sit Here And Cry
TTITLE12=David Nail ft. Brothers Osbourne - Good At Tonight
TTITLE13=Madison Station - Back In The Day
TTITLE14=Terra Bella - You've Got That Somethin'
TTITLE15=Moonshine Man - Trouble
TTITLE16=NewTown - Come Back To Me
TTITLE17=James Dupre - Stoned To Death
TTITLE18=Casey Donahew - Kiss Me
TTITLE19=Curtis Braly - Love You Down
EXTD=
EXTT0=
EXTT1=
EXTT2=
EXTT3=
EXTT4=
EXTT5=
EXTT6=
EXTT7=
EXTT8=
EXTT9=
EXTT10=
EXTT11=
EXTT12=
EXTT13=
EXTT14=
EXTT15=
EXTT16=
EXTT17=
EXTT18=
EXTT19=
PLAYORDER=
